<?xml version="1.0" encoding="UTF-8" standalone="no"?>
<!-- Created with Inkscape (http://www.inkscape.org/) -->

<svg
   version="1.1"
   id="svg17479"
   xml:space="preserve"
   width="1066.6667"
   height="1066.6667"
   viewBox="0 0 1066.6667 1066.6667"
   sodipodi:docname="victorious-boy-pdv.svg"
   inkscape:version="1.1.2 (b8e25be833, 2022-02-05)"
   xmlns:inkscape="http://www.inkscape.org/namespaces/inkscape"
   xmlns:sodipodi="http://sodipodi.sourceforge.net/DTD/sodipodi-0.dtd"
   xmlns="http://www.w3.org/2000/svg"
   xmlns:svg="http://www.w3.org/2000/svg"><defs
     id="defs17483"><clipPath
       clipPathUnits="userSpaceOnUse"
       id="clipPath17493"><path
         d="M 0,800 H 800 V 0 H 0 Z"
         id="path17491" /></clipPath></defs><sodipodi:namedview
     id="namedview17481"
     pagecolor="#ffffff"
     bordercolor="#666666"
     borderopacity="1.0"
     inkscape:pageshadow="2"
     inkscape:pageopacity="0.0"
     inkscape:pagecheckerboard="0"
     showgrid="false"
     inkscape:zoom="0.77906244"
     inkscape:cx="533.33337"
     inkscape:cy="533.33337"
     inkscape:window-width="1920"
     inkscape:window-height="1018"
     inkscape:window-x="-8"
     inkscape:window-y="-8"
     inkscape:window-maximized="1"
     inkscape:current-layer="g17485" /><g
     id="g17485"
     inkscape:groupmode="layer"
     inkscape:label="victorious-boy-pdv"
     transform="matrix(1.3333333,0,0,-1.3333333,0,1066.6667)"><g
       id="g17487"><g
         id="g17489"
         clip-path="url(#clipPath17493)"><path
           d="m 439.807,72.492 c 0.109,-0.842 0.145,-1.705 0.298,-2.539 0.067,-0.512 0.125,-1.039 0.198,-1.558 0.066,-0.505 0.22,-1.054 0.22,-1.559 0,-2.744 0.696,-5.657 1.903,-8.115 0.599,-1.193 1.361,-2.393 2.443,-3.198 1.537,-1.127 2.972,-1.01 4.816,-1.01 9.249,0 18.499,0.008 27.749,0.014 5.597,0 11.203,0 16.808,0.008 2.846,0 5.694,0.008 8.539,0.008 2.334,-0.016 4.757,-0.564 7.098,-0.864 2.854,-0.359 6.03,-0.292 8.232,1.566 2.233,1.88 2.827,5.239 1.991,8.034 -0.76,2.555 -2.685,5.24 -4.888,6.762 -0.062,0.043 -0.126,0.082 -0.189,0.124 l -75.597,8.048 c 0.01,-1.914 0.131,-3.824 0.379,-5.721"
           style="fill:#ae6edb;fill-opacity:1;fill-rule:nonzero;stroke:none"
           id="path17495" /><path
           d="m 296.205,61.742 c 0.98,0.206 1.976,0.485 2.788,1.084 0.85,0.624 1.401,1.524 1.758,2.525 l -16.776,-4.224 c 4.096,-0.17 8.192,-0.256 12.23,0.615"
           style="fill:#ae6edb;fill-opacity:1;fill-rule:nonzero;stroke:none"
           id="path17497" /><path
           d="m 488.277,80.476 c -3.101,1.244 -6.131,2.671 -9.263,3.82 -1.446,0.532 -2.887,1.129 -4.248,1.858 l -34.967,-0.501 c -0.069,-2.141 -0.33,-4.257 -0.373,-6.399 -0.006,-0.347 -10e-4,-0.694 0.002,-1.041 l 75.597,-8.048 c -2.347,1.557 -5.272,2.249 -7.809,3.433 -6.103,2.853 -12.703,4.376 -18.939,6.878"
           style="fill:#acaeff;fill-opacity:1;fill-rule:nonzero;stroke:none"
           id="path17499" /><path
           d="m 470.518,89.301 c -2.678,2.809 -4.018,6.687 -4.45,10.553 -0.086,0.789 -0.148,1.587 -0.187,2.392 L 439.43,96.992 c 0.125,-1.409 0.224,-2.821 0.289,-4.237 0.116,-2.305 0.146,-4.618 0.088,-6.922 -0.002,-0.06 -0.006,-0.12 -0.008,-0.18 l 34.967,0.501 c -1.561,0.837 -3.016,1.849 -4.248,3.147"
           style="fill:#b19df8;fill-opacity:1;fill-rule:nonzero;stroke:none"
           id="path17501" /><path
           d="m 594.588,661.935 c 0.125,5.971 0.089,11.949 0.519,17.899 0.696,9.645 1.516,19.274 0.374,28.948 -0.19,1.588 -0.03,3.235 0.118,4.837 0.438,4.998 1.733,9.975 0.702,15.009 -0.512,2.487 -0.645,5.312 -3.293,6.827 -0.981,0.564 -1.877,1.273 -2.783,1.963 l -24.352,-29.289 c 0.125,-0.097 0.249,-0.195 0.375,-0.29 4.471,-3.403 4.873,-7.919 4.748,-12.748 -0.16,-5.92 -1.361,-11.708 -2.547,-17.496 -1.616,-7.91 -2.691,-15.939 -5.231,-23.636 -1.927,-5.864 -3.906,-11.709 -5.975,-17.524 l 36.63,4.443 c 0.447,7.011 0.576,14.03 0.715,21.057"
           style="fill:#fb7a73;fill-opacity:1;fill-rule:nonzero;stroke:none"
           id="path17503" /><path
           d="m 479.521,469.931 c -0.103,1.969 -0.251,3.93 -0.566,5.902 -0.761,4.713 -1.391,9.469 -1.668,14.226 -0.264,4.492 -0.221,9.029 0.102,13.515 0.234,3.344 -0.812,6.549 -0.336,9.93 0.289,2.059 0.387,4.114 0.377,6.169 l -28.34,-7.203 z"
           style="fill:#fecc8d;fill-opacity:1;fill-rule:nonzero;stroke:none"
           id="path17505" /><path
           d="m 585.339,739.948 c -1.946,0.344 -2.679,2.759 -4.8,2.744 -5.488,-0.029 -10.963,-0.11 -16.377,1.185 -4.727,1.128 -6.812,-1.126 -6.6,-6.409 0.014,-0.601 0.051,-1.171 -0.673,-1.34 -1.465,-0.344 -2.635,-1.317 -4.223,-1.523 -2.408,-0.306 -4.303,-3.995 -3.264,-6.211 1.486,-3.191 2.927,-6.425 5.057,-9.272 3.197,-4.291 7.23,-7.787 11.414,-10.993 l 24.352,29.289 c -1.471,1.121 -2.967,2.195 -4.886,2.53"
           style="fill:#f36e73;fill-opacity:1;fill-rule:nonzero;stroke:none"
           id="path17507" /><path
           d="m 468.959,154.003 c 0.05,3.589 -0.096,7.162 -0.248,10.735 -0.205,4.604 -0.293,9.236 -0.871,13.794 -0.432,3.409 -0.754,6.85 -1.295,10.26 -0.406,2.59 -0.645,5.203 -1.011,7.805 l -10.85,0.409 z"
           style="fill:#c2ccff;fill-opacity:1;fill-rule:nonzero;stroke:none"
           id="path17509" /><path
           d="m 465.534,196.597 c -0.214,1.522 -0.471,3.04 -0.833,4.547 -0.41,1.711 -0.967,3.747 0.028,5.253 0.615,0.938 2.284,-0.065 3.484,-0.11 3.951,-0.152 5.92,2.519 4.83,5.409 -1.369,3.615 -1.852,7.382 0.015,11.072 1.046,2.07 1.668,4.265 2.172,6.519 1.325,6.001 2.54,12.016 -0.49,17.856 -0.67,1.285 -1.06,2.546 -1.238,3.808 l -18.818,-53.945 z"
           style="fill:#d3dbff;fill-opacity:1;fill-rule:nonzero;stroke:none"
           id="path17511" /><path
           d="m 569.401,590.054 c 3.79,1.324 7.706,2.436 11.285,4.221 4.052,2.006 5.304,6.316 6.416,10.275 3.038,10.815 5.628,21.748 6.535,33.003 0.088,1.107 0.166,2.217 0.236,3.325 l -36.63,-4.443 c -0.831,-2.335 -1.673,-4.666 -2.536,-6.991 -1.778,-4.8 -4.646,-7.229 -9.775,-7.405 -3.909,-0.139 -7.391,1.741 -11.227,1.917 -1.045,0.044 -1.521,-0.929 -2.399,-0.622 -2.049,0.718 -4.099,1.456 -6.148,2.203 -1.484,0.549 -3.205,0.717 -4.433,0.029 -2.196,-1.236 -4.288,-1.141 -6.323,-0.205 -1.025,0.484 -1.918,0.403 -2.664,0.059 -1.504,-0.692 -2.955,-1.107 -4.404,-0.922 l 50.481,-37.635 c 3.906,0.83 7.773,1.858 11.586,3.191"
           style="fill:#ff9773;fill-opacity:1;fill-rule:nonzero;stroke:none"
           id="path17513" /><path
           d="m 477.43,519.673 c -0.034,5.79 -0.965,11.569 -1.139,17.365 -0.043,1.507 0.125,2.736 0.996,4.082 1.156,1.801 2.02,3.776 2.686,5.905 1.244,3.989 2.099,8.387 7.097,9.931 2.752,0.849 5.422,3.497 7.94,3.249 5.73,-0.557 11.76,-0.212 17.131,-3.153 0.929,-0.505 2.671,-1.399 3.286,0.065 1.507,3.586 4.448,6.044 6.651,9.059 3.388,4.625 6.074,9.55 8.065,14.885 0.496,1.331 1.192,2.099 2.744,2.268 8.354,0.927 16.722,1.79 24.928,3.534 l -50.481,37.635 c -0.879,0.112 -1.756,0.444 -2.643,1.068 -1.398,0.981 -3.073,0.703 -4.412,0.146 -0.661,-0.274 -0.92,-0.169 -1.431,-0.024 L 449.09,512.47 Z"
           style="fill:#fea673;fill-opacity:1;fill-rule:nonzero;stroke:none"
           id="path17515" /><path
           d="m 442.389,673.877 c -0.901,1.478 -0.696,2.693 -0.08,4.083 0.306,0.688 0.504,1.464 0.599,2.21 0.535,4.552 0.192,9.074 -0.014,13.647 -0.337,7.516 -4.245,13.656 -6.41,20.431 -1.201,3.77 -4.289,6.667 -7.113,9.39 -3.688,3.562 -8.275,6.044 -12.462,9.014 -0.886,0.622 -1.675,0.601 -2.759,0.484 -1.918,-0.205 -3.834,-1.318 -5.898,-0.008 -1.697,1.075 -4.018,0.249 -5.817,1.295 -2.334,1.347 -4.925,1.64 -7.31,0.835 -2.54,-0.871 -5.005,-1.2 -7.655,-1.332 -3.205,-0.161 -5.898,-1.639 -8.503,-3.762 -2.123,-1.725 -4.474,-3.179 -6.705,-4.771 l 70.57,-52.719 c -0.072,0.414 -0.205,0.816 -0.443,1.203"
           style="fill:#f06173;fill-opacity:1;fill-rule:nonzero;stroke:none"
           id="path17517" /><path
           d="m 364.094,629.883 c -0.562,0.713 -1.191,1.351 -1.987,1.779 -2.385,1.295 -4.874,2.78 -7.478,3.183 -2.151,0.337 -4.757,0.732 -6.857,-1.317 -0.856,-0.849 -1.954,-2.342 -3.402,-1.991 -0.028,0.007 -0.055,0.016 -0.082,0.023 l 0.02,-1.63 z"
           style="fill:#f66073;fill-opacity:1;fill-rule:nonzero;stroke:none"
           id="path17519" /><path
           d="m 425.295,630.088 c 3.176,3.674 5.312,7.779 6.169,12.638 0.264,1.529 -0.316,4.046 1.741,4.501 2.781,0.606 4.068,2.414 5.166,4.602 2.518,5.02 6.352,9.74 4.582,15.915 -0.474,1.65 0.152,3.37 -0.121,4.93 l -70.57,52.719 c -2.766,-1.975 -5.347,-4.165 -7.081,-7.361 -0.615,-1.113 -2.056,-1.742 -2.884,-2.773 -4.434,-5.555 -7.361,-11.745 -8.078,-18.932 -0.497,-4.961 -0.227,-9.951 -1.135,-14.884 -0.358,-1.923 -0.475,-4.017 0.594,-5.752 1.119,-1.807 1.426,-3.117 -0.711,-4.376 -0.622,-0.358 -0.863,-1.338 -0.856,-2.268 0.081,-8.502 2.738,-16.068 8.16,-22.654 0.783,-0.967 1.749,-1.435 2.919,-1.376 1.376,0.065 1.947,-0.718 2.137,-1.867 0.887,-5.336 3.191,-9.724 6.752,-13.287 l 52.925,-0.126 c 0.093,0.116 0.187,0.232 0.291,0.351"
           style="fill:#f66073;fill-opacity:1;fill-rule:nonzero;stroke:none"
           id="path17521" /><path
           d="m 483.5,630.783 c -0.659,1.156 -1.486,1.815 -2.906,1.501 -0.431,-0.089 -0.877,-0.037 -1.39,0.175 -2.057,0.856 -4.304,1.449 -6.132,-0.336 -0.951,-0.937 -1.522,-0.754 -2.312,-0.066 -0.93,0.812 -1.764,0.929 -2.576,-0.198 -1.31,-1.843 -2.913,-1.975 -5.079,-1.376 -0.988,0.279 -2.195,1.157 -3.556,0.352 -0.965,-0.578 -2.045,-0.896 -3.136,-1.173 l 27.937,-0.066 c -0.31,0.348 -0.596,0.739 -0.85,1.187"
           style="fill:#f66073;fill-opacity:1;fill-rule:nonzero;stroke:none"
           id="path17523" /><path
           d="m 476.18,286.147 c 1.22,4.946 0.394,10.027 -0.196,15.073 -0.293,2.597 -1.309,5.107 -0.49,7.786 1.5,4.888 0.695,9.835 0.022,14.708 -0.453,3.294 -0.885,6.704 -2.898,9.571 -0.753,1.083 -0.805,2.203 -0.718,3.498 0.448,6.03 0.733,12.06 0.44,18.104 -0.256,5.261 -0.965,10.478 -0.095,15.792 0.519,3.234 0.549,6.63 -0.182,9.907 -0.835,3.762 -0.989,7.597 -1.157,11.416 -0.285,6.395 -0.176,12.872 -4.654,18.199 -0.381,0.446 -1.178,1.069 -0.615,1.588 0.519,0.482 1.398,0.147 1.961,-0.439 0.351,-0.366 0.717,-0.717 1.039,-1.104 2.89,-3.411 6.564,-4.779 10.963,-4.209 3.614,0.461 5.648,2.503 4.682,4.866 -0.614,1.479 -1.829,2.694 -2.692,4.084 -0.147,0.241 -0.35,0.487 -0.57,0.737 l -98.677,0.541 z"
           style="fill:#fbcbc2;fill-opacity:1;fill-rule:nonzero;stroke:none"
           id="path17525" /><path
           d="m 382.343,416.265 98.677,-0.541 c -0.93,1.047 -2.181,2.153 -0.952,3.164 1.741,1.433 1.229,2.78 1.127,4.272 -0.103,1.449 -0.015,2.899 -0.981,4.244 -1.054,1.479 0.834,2.869 0.542,4.376 -0.41,2.086 -0.008,4.275 -1.472,6.25 -1.69,2.298 1.303,4.925 -0.021,7.42 -0.015,0.044 0.102,0.22 0.19,0.248 1.917,0.637 1.427,2.299 1.354,3.594 -0.329,6.015 -0.901,12.016 -1.164,18.03 -0.038,0.872 -0.076,1.741 -0.122,2.609 L 449.09,512.47 Z"
           style="fill:#ffbd88;fill-opacity:1;fill-rule:nonzero;stroke:none"
           id="path17527" /><path
           d="m 449.09,512.47 49.758,113.218 c -0.021,0.005 -0.039,0.011 -0.062,0.017 -2.575,0.725 -5.115,1.412 -7.874,1.441 -2.453,0.026 -4.883,0.552 -6.562,2.45 l -27.937,0.066 c -1.491,-0.378 -3.005,-0.68 -4.276,-1.462 -1.881,-1.155 -4.684,0.264 -5.862,-2.355 -0.029,-0.074 -0.543,-0.044 -0.717,0.08 -1.127,0.798 -2.415,0.431 -3.3,-0.059 -1.113,-0.622 -1.91,-0.827 -3.06,-0.212 -2.202,1.171 -4.091,1.375 -5.97,-1.053 -2.028,-2.598 -4.735,-2.437 -7.451,-0.176 -2.226,1.859 -2.47,3.194 -0.773,5.312 l -52.925,0.126 c 1.317,-1.318 2.802,-2.527 4.459,-3.624 2.568,-1.697 -1.025,-2.948 -0.41,-4.581 0.234,-0.614 -0.498,-0.783 -0.922,-0.966 -0.205,-0.088 -0.527,0.044 -0.776,0.132 -1.083,0.366 -1.815,1.127 -2.151,2.196 -0.454,1.376 -1.961,2.297 -2.744,2.034 -2.766,-0.93 -2.956,1.325 -3.908,2.663 -0.507,0.713 -0.989,1.474 -1.533,2.166 l -19.786,0.047 z"
           style="fill:#fd8973;fill-opacity:1;fill-rule:nonzero;stroke:none"
           id="path17529" /><path
           d="m 474.74,282.252 c 0.653,1.287 1.117,2.587 1.44,3.895 L 382.343,416.265 329.766,285.007 377.55,282.56 c 0.839,1.694 1.63,3.414 2.339,5.173 0.264,0.652 0.659,1.544 1.376,1.514 0.556,-0.02 0.381,-0.966 0.351,-1.463 -0.12,-1.811 -0.187,-3.619 -0.198,-5.423 l 92.91,-4.757 c -0.264,1.557 -0.345,3.154 0.412,4.648"
           style="fill:#f5abcc;fill-opacity:1;fill-rule:nonzero;stroke:none"
           id="path17531" /><path
           d="m 466.91,119.303 c 0.658,6.908 1.054,13.845 1.545,20.775 0.328,4.617 0.439,9.25 0.504,13.889 v 0.036 l -14.275,43.003 -27.272,-39.849 c 0.138,-0.604 0.281,-1.207 0.437,-1.807 4.208,-16.238 7.449,-32.666 10.362,-49.167 0.537,-3.047 0.946,-6.112 1.219,-9.191 l 26.451,5.254 c -0.277,5.62 0.504,11.546 1.029,17.057"
           style="fill:#bc98e3;fill-opacity:1;fill-rule:nonzero;stroke:none"
           id="path17533" /><path
           d="m 364.472,260.557 c 2.793,4.217 5.64,8.401 8.107,12.797 1.705,3.03 3.421,6.074 4.971,9.206 l -47.784,2.447 z"
           style="fill:#e0b6db;fill-opacity:1;fill-rule:nonzero;stroke:none"
           id="path17535" /><path
           d="m 473.502,250.951 c -0.349,2.46 0.124,4.919 1.004,7.541 2.035,6.051 1.172,12.301 -0.059,18.455 -0.042,0.217 -0.082,0.437 -0.119,0.657 l -92.91,4.757 c -0.027,-4.992 0.395,-9.951 1.428,-14.875 1.389,-6.587 2.758,-13.179 4.017,-19.795 0.22,-1.154 0.476,-2.297 0.751,-3.436 l 67.07,-47.249 z"
           style="fill:#e0b6db;fill-opacity:1;fill-rule:nonzero;stroke:none"
           id="path17537" /><path
           d="m 341.325,501.283 41.018,-85.018 66.747,96.205 z"
           style="fill:#ff9a73;fill-opacity:1;fill-rule:nonzero;stroke:none"
           id="path17539" /><path
           d="M 344.308,629.93 341.325,501.283 449.09,512.47 Z"
           style="fill:#fd8673;fill-opacity:1;fill-rule:nonzero;stroke:none"
           id="path17541" /><path
           d="m 423.787,188.991 c 0.463,-2.619 0.795,-5.272 0.974,-7.971 0.53,-7.987 0.872,-16.051 2.651,-23.863 l 27.272,39.849 z"
           style="fill:#c288d3;fill-opacity:1;fill-rule:nonzero;stroke:none"
           id="path17543" /><path
           d="m 333.056,215.038 c 1.952,4.645 4.681,8.985 6.835,13.547 0.476,1.01 1.112,0.966 2.012,0.3 2.467,-1.807 2.883,-1.559 4.054,1.148 1.903,4.391 3.315,9.074 7.04,12.455 0.9,0.82 1.719,1.771 2.466,2.738 2.722,3.475 4.098,7.727 6.454,11.415 0.838,1.314 1.694,2.616 2.555,3.916 l -34.706,24.45 z"
           style="fill:#d593ce;fill-opacity:1;fill-rule:nonzero;stroke:none"
           id="path17545" /><path
           d="m 387.614,244.255 c 0.486,-2.018 1.029,-4.02 1.525,-6.04 0.981,-3.952 0.197,-7.785 -1.639,-11.394 -0.645,-1.28 -0.762,-2.027 0.716,-2.977 3.857,-2.474 7.86,-4.918 9.309,-9.747 0.219,-0.71 0.921,-0.989 1.595,-1.091 3.981,-0.586 7.962,-1.112 11.943,-1.705 3.263,-0.484 6.19,-0.513 7.799,-4.83 2.155,-5.755 3.876,-11.533 4.925,-17.48 l 30.897,8.015 z"
           style="fill:#d593ce;fill-opacity:1;fill-rule:nonzero;stroke:none"
           id="path17547" /><path
           d="m 344.308,629.93 -46.151,-69.228 c 2.035,-2.146 4.319,-4.111 5.212,-7.091 1.251,-4.177 2.327,-8.384 2.612,-12.812 0.74,-11.4 2.395,-22.735 2.817,-34.149 l 32.527,-5.367 z"
           style="fill:#fa7473;fill-opacity:1;fill-rule:nonzero;stroke:none"
           id="path17549" /><path
           d="m 344.288,631.56 c -2.1,0.522 -4.113,1.4 -5.912,2.744 -1.237,0.934 -2.281,2.475 -4.327,1.366 l 10.259,-5.74 z"
           style="fill:#f04873;fill-opacity:1;fill-rule:nonzero;stroke:none"
           id="path17551" /><path
           d="m 341.325,501.283 -32.821,-26.03 c 0.053,-4.197 0.64,-8.38 0.697,-12.563 0.029,-2.078 0.468,-4.17 0.205,-6.205 -0.878,-6.512 -1.881,-12.996 -0.864,-19.583 0.059,-0.38 0.03,-0.789 -0.021,-1.17 -0.451,-3.375 -0.045,-6.695 0.369,-10.017 l 73.453,-9.45 z"
           style="fill:#ff8473;fill-opacity:1;fill-rule:nonzero;stroke:none"
           id="path17553" /><path
           d="m 382.343,416.265 -73.453,9.45 c 0.238,-1.916 0.479,-3.832 0.56,-5.76 0.007,-0.145 0.116,-0.321 0.227,-0.424 0.9,-0.791 0.812,-1.887 0.475,-2.744 -1.105,-2.729 -0.908,-5.306 0.161,-7.998 1.142,-2.912 2.942,-5.548 3.52,-8.701 0.227,-1.207 1.112,-2.012 2.415,-2.305 1.258,-0.278 2.063,-1.141 1.748,-2.429 -1.609,-6.432 -2.21,-13.158 -4.975,-19.253 -1.874,-4.15 -1.742,-8.781 -3.586,-12.887 -0.937,-2.092 -1.669,-4.229 -2.371,-6.409 -1.753,-5.393 -4.026,-10.587 -5.594,-16.051 l 28.296,-55.747 z"
           style="fill:#fc868f;fill-opacity:1;fill-rule:nonzero;stroke:none"
           id="path17555" /><path
           d="m 280.64,147.447 c -0.669,-7.982 -1.262,-15.972 -2.009,-23.949 l 29.259,-11.419 c 1.516,8.867 3.769,17.58 6.031,26.279 2.202,8.476 5.672,16.52 8.699,24.719 l -41.56,-9.718 c -0.122,-1.972 -0.256,-3.943 -0.42,-5.912"
           style="fill:#be58bd;fill-opacity:1;fill-rule:nonzero;stroke:none"
           id="path17557" /><path
           d="m 276.483,104.8 c -0.716,-5.035 -2.524,-9.148 -7.412,-11.321 -4.815,-2.136 -9.615,-4.332 -14.504,-6.286 -6.234,-2.502 -12.835,-4.031 -18.938,-6.893 -2.597,-1.214 -5.619,-1.903 -7.994,-3.541 -2.203,-1.53 -4.128,-4.216 -4.888,-6.762 -0.835,-2.809 -0.246,-6.161 1.99,-8.049 2.199,-1.844 5.379,-1.918 8.229,-1.552 1.771,0.22 3.527,0.579 5.312,0.645 1.742,0.072 3.425,-0.278 5.167,-0.206 2.305,0.089 4.61,0.161 6.915,0.234 4.61,0.132 9.22,0.22 13.83,0.264 4.573,0.044 9.155,0.044 13.727,0 2.015,-0.02 4.037,-0.123 6.058,-0.206 l 16.776,4.224 c 0.303,0.85 0.466,1.775 0.547,2.67 0.541,5.971 1.112,12.163 2.254,18.067 1.463,7.545 2.685,15.118 3.812,22.715 0.162,1.094 0.34,2.186 0.526,3.276 l -29.259,11.419 c -0.585,-6.246 -1.263,-12.482 -2.148,-18.698"
           style="fill:#b03ab3;fill-opacity:1;fill-rule:nonzero;stroke:none"
           id="path17559" /><path
           d="m 301.47,340.754 c -0.512,-1.787 -0.951,-3.603 -1.27,-5.463 -1.229,-7.099 -3.951,-13.904 -4.851,-21.104 -0.41,-3.279 -0.066,-6.865 -1.31,-9.777 -3.981,-9.367 -5.555,-19.391 -8.254,-29.08 -0.249,-0.892 -0.465,-1.794 -0.661,-2.699 l 44.642,12.376 z"
           style="fill:#f274ab;fill-opacity:1;fill-rule:nonzero;stroke:none"
           id="path17561" /><path
           d="m 285.124,272.631 c -1.62,-7.449 -1.671,-15.278 -3.394,-22.789 -0.438,-1.909 0.864,-2.978 2.356,-3.848 2.782,-1.618 5.767,-2.76 8.767,-3.887 1.068,-0.395 1.69,-1.009 1.566,-2.253 -0.658,-6.483 -1.896,-12.865 -4.068,-19.019 -0.02,-0.054 -0.037,-0.108 -0.056,-0.163 l 36.444,-44.168 c 0.965,4.308 1.627,8.676 2.146,13.07 0.717,6.089 0.988,12.243 2.005,18.28 0.419,2.513 1.199,4.885 2.166,7.184 l -3.29,69.969 z"
           style="fill:#db79ba;fill-opacity:1;fill-rule:nonzero;stroke:none"
           id="path17563" /><path
           d="m 308.798,506.65 c 0.087,-2.361 0.126,-4.725 0.088,-7.093 -0.037,-2.386 0.037,-4.772 -0.007,-7.158 -0.11,-5.619 -0.424,-11.253 -0.381,-16.874 0.001,-0.09 0.005,-0.181 0.006,-0.272 l 32.821,26.03 z"
           style="fill:#fa7a73;fill-opacity:1;fill-rule:nonzero;stroke:none"
           id="path17565" /><path
           d="m 254.67,758.382 c 0.79,1.324 0.878,2.634 0.366,3.848 -0.344,0.82 -1.208,1.719 -2.313,1.712 -1.8,-0.006 -3.6,-0.131 -5.093,-1.353 -0.039,-0.031 -0.076,-0.059 -0.114,-0.087 l 3.373,-9.635 c 1.353,1.747 2.622,3.576 3.781,5.515"
           style="fill:#e43573;fill-opacity:1;fill-rule:nonzero;stroke:none"
           id="path17567" /><path
           d="m 334.049,635.67 c -0.132,-0.071 -0.267,-0.152 -0.407,-0.247 -1.098,-0.739 -2.898,-0.593 -4.003,-1.852 -0.154,-0.175 -0.973,-0.138 -1.09,0.044 -1.259,2.101 -3.308,0.63 -4.581,0.52 -1.874,-0.161 -4.069,-0.995 -5.664,-2.401 -1.069,-0.943 -1.903,-0.972 -3.161,-0.306 -1.441,0.767 -3.235,1.895 -4.603,1.602 -5.671,-1.207 -9.557,2.481 -14.043,4.523 -1.697,0.775 -3.79,2.312 -5.188,1.148 -1.939,-1.61 -3.615,-2.291 -5.642,-0.944 -1.581,1.055 -3.205,0.154 -4.852,0.644 -0.573,0.17 -1.145,0.353 -1.718,0.539 l -6.75,-68.513 c 1.606,-0.108 3.225,-0.171 4.788,-0.489 7.098,-1.45 14.665,-1.713 19.904,-7.991 0.356,-0.427 0.733,-0.839 1.118,-1.245 l 46.151,69.228 z"
           style="fill:#f65f73;fill-opacity:1;fill-rule:nonzero;stroke:none"
           id="path17569" /><path
           d="m 282.653,180.142 c -0.804,-8.906 -1.038,-17.86 -1.593,-26.783 l 41.56,9.718 c 0.715,1.939 1.407,3.885 2.05,5.847 0.819,2.501 1.497,5.029 2.069,7.58 l -36.444,44.168 c -4.626,-13.121 -6.389,-26.801 -7.642,-40.53"
           style="fill:#ca64b7;fill-opacity:1;fill-rule:nonzero;stroke:none"
           id="path17571" /><path
           d="m 235.352,693.415 c -2.02,5.064 -3.389,10.311 -4.72,15.587 -1.501,5.956 -3.249,11.84 -2.883,18.074 0.186,3.132 0.943,5.811 3.804,7.933 7.102,5.268 13.923,10.869 19.336,17.858 l -3.373,9.635 c -1.058,-0.8 -1.696,-0.443 -1.978,0.885 -0.351,1.638 -1.142,2.78 -2.928,3.277 -1.214,0.337 -2.517,0.52 -3.644,0.952 -6.337,2.414 -12.308,0 -18.378,-1.141 -0.362,-0.066 -0.692,-0.337 -1.032,-0.527 -2.616,-1.45 -3.435,-4.325 -5.035,-6.55 -2.71,-3.768 -5.908,-7.266 -7.148,-11.986 -0.93,-3.535 -1.171,-7.156 -1.915,-10.706 -1.086,-5.187 -1.657,-10.478 -0.797,-15.703 0.544,-3.306 1.011,-6.624 1.487,-9.941 l 29.296,-17.877 c -0.031,0.077 -0.062,0.153 -0.092,0.23"
           style="fill:#db2573;fill-opacity:1;fill-rule:nonzero;stroke:none"
           id="path17573" /><path
           d="m 242.728,675.15 c -2.457,6.005 -4.885,12.017 -7.284,18.035 l -29.296,17.877 c 0.428,-2.984 0.863,-5.966 1.367,-8.939 1.233,-7.295 1.687,-14.723 2.616,-22.084 1.241,-9.865 2.254,-19.766 4.885,-29.402 0.415,-1.52 0.84,-3.035 1.284,-4.544 l 34.344,9.925 c -2.642,6.378 -5.301,12.753 -7.916,19.132"
           style="fill:#dd2e73;fill-opacity:1;fill-rule:nonzero;stroke:none"
           id="path17575" /><path
           d="m 272.049,640.655 c -1.705,0.132 -3.607,0.424 -5.144,1.156 -1.522,0.717 -3,1.507 -4.61,2.02 -4.903,1.559 -8.503,4.552 -10.486,9.374 -0.388,0.938 -0.777,1.875 -1.165,2.813 L 216.3,646.093 c 1.865,-6.337 4.064,-12.548 7.27,-18.376 0.97,-1.755 1.899,-3.658 3.955,-4.435 3.271,-1.228 6.275,-2.882 9.151,-4.894 6.988,-4.889 14.547,-8.752 22.516,-11.76 2.137,-0.805 3.029,-2.195 3.41,-4.251 1.888,-10.281 4.683,-20.351 7.186,-30.493 0.234,-0.951 0.893,-1.332 1.83,-1.405 0.242,-0.019 0.486,-0.037 0.729,-0.052 l 6.75,68.513 c -2.282,0.74 -4.573,1.522 -7.048,1.715"
           style="fill:#ed5373;fill-opacity:1;fill-rule:nonzero;stroke:none"
           id="path17577" /></g></g></g></svg>
